<mxfile host="app.diagrams.net" modified="2020-11-14T15:59:29.166Z" agent="5.0 (Windows NT 10.0; Win64; x64) AppleWebKit/537.36 (KHTML, like Gecko) Chrome/86.0.4240.193 Safari/537.36 Edg/86.0.622.68" etag="qqUGk0NuWkoF1S_dMN3m" version="13.9.7" type="github">
  <diagram id="0rjbAF-paFFtcctBZeeb" name="Page-1">
    <mxGraphModel dx="1021" dy="579" grid="1" gridSize="10" guides="1" tooltips="1" connect="1" arrows="1" fold="1" page="1" pageScale="1" pageWidth="850" pageHeight="1100" math="0" shadow="0">
      <root>
        <mxCell id="0" />
        <mxCell id="1" parent="0" />
        <mxCell id="S_Jm4G6OdrVMgnbV-L9d-10" style="edgeStyle=orthogonalEdgeStyle;rounded=0;orthogonalLoop=1;jettySize=auto;html=1;exitX=0.5;exitY=1;exitDx=0;exitDy=0;entryX=0.5;entryY=0;entryDx=0;entryDy=0;" parent="1" source="S_Jm4G6OdrVMgnbV-L9d-2" target="S_Jm4G6OdrVMgnbV-L9d-3" edge="1">
          <mxGeometry relative="1" as="geometry" />
        </mxCell>
        <mxCell id="0T3CSqrPubl29R6FcpN1-7" value="Available Course&amp;nbsp;" style="edgeLabel;html=1;align=center;verticalAlign=middle;resizable=0;points=[];" vertex="1" connectable="0" parent="S_Jm4G6OdrVMgnbV-L9d-10">
          <mxGeometry x="-0.25" relative="1" as="geometry">
            <mxPoint as="offset" />
          </mxGeometry>
        </mxCell>
        <mxCell id="S_Jm4G6OdrVMgnbV-L9d-34" style="edgeStyle=orthogonalEdgeStyle;rounded=0;orthogonalLoop=1;jettySize=auto;html=1;entryX=0;entryY=0.5;entryDx=0;entryDy=0;" parent="1" source="S_Jm4G6OdrVMgnbV-L9d-2" target="S_Jm4G6OdrVMgnbV-L9d-5" edge="1">
          <mxGeometry relative="1" as="geometry" />
        </mxCell>
        <mxCell id="S_Jm4G6OdrVMgnbV-L9d-2" value="Browse Course Catalogue&lt;br&gt;&lt;br&gt;1.0" style="ellipse;whiteSpace=wrap;html=1;aspect=fixed;" parent="1" vertex="1">
          <mxGeometry x="370" y="80" width="80" height="80" as="geometry" />
        </mxCell>
        <mxCell id="S_Jm4G6OdrVMgnbV-L9d-11" value="" style="edgeStyle=orthogonalEdgeStyle;rounded=0;orthogonalLoop=1;jettySize=auto;html=1;" parent="1" source="S_Jm4G6OdrVMgnbV-L9d-3" target="S_Jm4G6OdrVMgnbV-L9d-4" edge="1">
          <mxGeometry relative="1" as="geometry" />
        </mxCell>
        <mxCell id="0T3CSqrPubl29R6FcpN1-8" value="Selection Completed" style="edgeLabel;html=1;align=center;verticalAlign=middle;resizable=0;points=[];" vertex="1" connectable="0" parent="S_Jm4G6OdrVMgnbV-L9d-11">
          <mxGeometry x="-0.25" relative="1" as="geometry">
            <mxPoint as="offset" />
          </mxGeometry>
        </mxCell>
        <mxCell id="S_Jm4G6OdrVMgnbV-L9d-31" style="edgeStyle=orthogonalEdgeStyle;rounded=0;orthogonalLoop=1;jettySize=auto;html=1;entryX=0;entryY=0.667;entryDx=0;entryDy=0;entryPerimeter=0;" parent="1" source="S_Jm4G6OdrVMgnbV-L9d-3" target="S_Jm4G6OdrVMgnbV-L9d-6" edge="1">
          <mxGeometry relative="1" as="geometry">
            <mxPoint x="630" y="240" as="targetPoint" />
          </mxGeometry>
        </mxCell>
        <mxCell id="0T3CSqrPubl29R6FcpN1-4" value="Course Details" style="edgeLabel;html=1;align=center;verticalAlign=middle;resizable=0;points=[];" vertex="1" connectable="0" parent="S_Jm4G6OdrVMgnbV-L9d-31">
          <mxGeometry x="0.1789" y="-2" relative="1" as="geometry">
            <mxPoint y="-2.01" as="offset" />
          </mxGeometry>
        </mxCell>
        <mxCell id="S_Jm4G6OdrVMgnbV-L9d-3" value="Select Course(s)&lt;br&gt;&lt;br&gt;2.0" style="ellipse;whiteSpace=wrap;html=1;aspect=fixed;" parent="1" vertex="1">
          <mxGeometry x="370" y="200" width="80" height="80" as="geometry" />
        </mxCell>
        <mxCell id="S_Jm4G6OdrVMgnbV-L9d-12" style="edgeStyle=orthogonalEdgeStyle;rounded=0;orthogonalLoop=1;jettySize=auto;html=1;entryX=0.5;entryY=1;entryDx=0;entryDy=0;exitX=0;exitY=0.5;exitDx=0;exitDy=0;" parent="1" source="S_Jm4G6OdrVMgnbV-L9d-4" target="S_Jm4G6OdrVMgnbV-L9d-8" edge="1">
          <mxGeometry relative="1" as="geometry">
            <Array as="points">
              <mxPoint x="190" y="360" />
            </Array>
          </mxGeometry>
        </mxCell>
        <mxCell id="0T3CSqrPubl29R6FcpN1-2" value="Enrollment Confirmation" style="edgeLabel;html=1;align=center;verticalAlign=middle;resizable=0;points=[];" vertex="1" connectable="0" parent="S_Jm4G6OdrVMgnbV-L9d-12">
          <mxGeometry x="-0.0791" y="-1" relative="1" as="geometry">
            <mxPoint x="18.33" y="1" as="offset" />
          </mxGeometry>
        </mxCell>
        <mxCell id="S_Jm4G6OdrVMgnbV-L9d-19" style="edgeStyle=orthogonalEdgeStyle;rounded=0;orthogonalLoop=1;jettySize=auto;html=1;entryX=0.5;entryY=0;entryDx=0;entryDy=0;" parent="1" source="S_Jm4G6OdrVMgnbV-L9d-4" target="S_Jm4G6OdrVMgnbV-L9d-18" edge="1">
          <mxGeometry relative="1" as="geometry" />
        </mxCell>
        <mxCell id="S_Jm4G6OdrVMgnbV-L9d-20" value="Registration Completed" style="edgeLabel;html=1;align=center;verticalAlign=middle;resizable=0;points=[];" parent="S_Jm4G6OdrVMgnbV-L9d-19" vertex="1" connectable="0">
          <mxGeometry x="-0.1556" relative="1" as="geometry">
            <mxPoint as="offset" />
          </mxGeometry>
        </mxCell>
        <mxCell id="S_Jm4G6OdrVMgnbV-L9d-4" value="Register&lt;br&gt;&lt;br&gt;3.0" style="ellipse;whiteSpace=wrap;html=1;aspect=fixed;" parent="1" vertex="1">
          <mxGeometry x="370" y="320" width="80" height="80" as="geometry" />
        </mxCell>
        <mxCell id="S_Jm4G6OdrVMgnbV-L9d-35" style="edgeStyle=orthogonalEdgeStyle;rounded=0;orthogonalLoop=1;jettySize=auto;html=1;entryX=1;entryY=0.5;entryDx=0;entryDy=0;" parent="1" source="S_Jm4G6OdrVMgnbV-L9d-5" target="S_Jm4G6OdrVMgnbV-L9d-2" edge="1">
          <mxGeometry relative="1" as="geometry" />
        </mxCell>
        <mxCell id="0T3CSqrPubl29R6FcpN1-3" value="Course Content&lt;br&gt;Course Availability" style="edgeLabel;html=1;align=center;verticalAlign=middle;resizable=0;points=[];" vertex="1" connectable="0" parent="S_Jm4G6OdrVMgnbV-L9d-35">
          <mxGeometry x="0.1456" y="-3" relative="1" as="geometry">
            <mxPoint x="29.17" y="3" as="offset" />
          </mxGeometry>
        </mxCell>
        <mxCell id="S_Jm4G6OdrVMgnbV-L9d-5" value="Course Catalogue" style="html=1;dashed=0;whitespace=wrap;shape=partialRectangle;right=0;left=0;" parent="1" vertex="1">
          <mxGeometry x="640" y="105" width="100" height="30" as="geometry" />
        </mxCell>
        <mxCell id="S_Jm4G6OdrVMgnbV-L9d-33" style="edgeStyle=orthogonalEdgeStyle;rounded=0;orthogonalLoop=1;jettySize=auto;html=1;" parent="1" source="S_Jm4G6OdrVMgnbV-L9d-6" edge="1" target="S_Jm4G6OdrVMgnbV-L9d-18">
          <mxGeometry relative="1" as="geometry">
            <mxPoint x="450" y="480" as="targetPoint" />
            <Array as="points">
              <mxPoint x="810" y="235" />
              <mxPoint x="810" y="500" />
            </Array>
          </mxGeometry>
        </mxCell>
        <mxCell id="S_Jm4G6OdrVMgnbV-L9d-6" value="Course Repo" style="html=1;dashed=0;whitespace=wrap;shape=partialRectangle;right=0;left=0;" parent="1" vertex="1">
          <mxGeometry x="640" y="220" width="100" height="30" as="geometry" />
        </mxCell>
        <mxCell id="S_Jm4G6OdrVMgnbV-L9d-7" value="Registered Student DB" style="html=1;dashed=0;whitespace=wrap;shape=partialRectangle;right=0;left=0;" parent="1" vertex="1">
          <mxGeometry x="640" y="340" width="100" height="30" as="geometry" />
        </mxCell>
        <mxCell id="S_Jm4G6OdrVMgnbV-L9d-9" style="edgeStyle=orthogonalEdgeStyle;rounded=0;orthogonalLoop=1;jettySize=auto;html=1;entryX=0;entryY=0.5;entryDx=0;entryDy=0;" parent="1" source="S_Jm4G6OdrVMgnbV-L9d-8" target="S_Jm4G6OdrVMgnbV-L9d-2" edge="1">
          <mxGeometry relative="1" as="geometry">
            <mxPoint x="280" y="120" as="targetPoint" />
            <Array as="points">
              <mxPoint x="190" y="120" />
            </Array>
          </mxGeometry>
        </mxCell>
        <mxCell id="0T3CSqrPubl29R6FcpN1-1" value="Open Interface/&lt;br&gt;Application Details" style="edgeLabel;html=1;align=center;verticalAlign=middle;resizable=0;points=[];" vertex="1" connectable="0" parent="S_Jm4G6OdrVMgnbV-L9d-9">
          <mxGeometry x="0.2825" y="3" relative="1" as="geometry">
            <mxPoint as="offset" />
          </mxGeometry>
        </mxCell>
        <mxCell id="S_Jm4G6OdrVMgnbV-L9d-8" value="Student" style="html=1;dashed=0;whitespace=wrap;" parent="1" vertex="1">
          <mxGeometry x="140" y="255" width="100" height="50" as="geometry" />
        </mxCell>
        <mxCell id="S_Jm4G6OdrVMgnbV-L9d-32" style="edgeStyle=orthogonalEdgeStyle;rounded=0;orthogonalLoop=1;jettySize=auto;html=1;entryX=1;entryY=0.5;entryDx=0;entryDy=0;" parent="1" source="S_Jm4G6OdrVMgnbV-L9d-18" target="S_Jm4G6OdrVMgnbV-L9d-6" edge="1">
          <mxGeometry relative="1" as="geometry">
            <Array as="points">
              <mxPoint x="810" y="500" />
              <mxPoint x="810" y="235" />
            </Array>
          </mxGeometry>
        </mxCell>
        <mxCell id="0T3CSqrPubl29R6FcpN1-6" value="Access Classes &amp;amp; Submit Assessments&amp;nbsp;" style="edgeLabel;html=1;align=center;verticalAlign=middle;resizable=0;points=[];" vertex="1" connectable="0" parent="S_Jm4G6OdrVMgnbV-L9d-32">
          <mxGeometry x="-0.4385" y="-2" relative="1" as="geometry">
            <mxPoint x="0.83" y="-2" as="offset" />
          </mxGeometry>
        </mxCell>
        <mxCell id="S_Jm4G6OdrVMgnbV-L9d-18" value="Access Course(s) Content&lt;br&gt;&lt;br&gt;4.0" style="ellipse;whiteSpace=wrap;html=1;aspect=fixed;" parent="1" vertex="1">
          <mxGeometry x="370" y="460" width="80" height="80" as="geometry" />
        </mxCell>
        <mxCell id="S_Jm4G6OdrVMgnbV-L9d-29" value="" style="endArrow=classic;html=1;exitX=1;exitY=0.5;exitDx=0;exitDy=0;" parent="1" source="S_Jm4G6OdrVMgnbV-L9d-4" edge="1">
          <mxGeometry width="50" height="50" relative="1" as="geometry">
            <mxPoint x="449.03999999999996" y="349.03999999999996" as="sourcePoint" />
            <mxPoint x="630" y="360" as="targetPoint" />
          </mxGeometry>
        </mxCell>
        <mxCell id="0T3CSqrPubl29R6FcpN1-5" value="Registration Details" style="edgeLabel;html=1;align=center;verticalAlign=middle;resizable=0;points=[];" vertex="1" connectable="0" parent="S_Jm4G6OdrVMgnbV-L9d-29">
          <mxGeometry x="0.2815" y="1" relative="1" as="geometry">
            <mxPoint x="-25" y="1" as="offset" />
          </mxGeometry>
        </mxCell>
      </root>
    </mxGraphModel>
  </diagram>
</mxfile>
